HIERARCHY
ROOT Hips
{
 OFFSET 0.000000 0.000000 0.000000
 CHANNELS 6 Xposition Yposition Zposition Yrotation Xrotation Zrotation
 JOINT Chest
 {
  OFFSET 0.000000 10.383400 0.001500
  CHANNELS 3 Yrotation Xrotation Zrotation
  JOINT Chest2
  {
   OFFSET 0.000000 10.418200 -0.003100
   CHANNELS 3 Yrotation Xrotation Zrotation
   JOINT Chest3
   {
    OFFSET 0.000000 10.375100 0.000000
    CHANNELS 3 Yrotation Xrotation Zrotation
    JOINT Chest4
    {
     OFFSET 0.000000 10.364600 0.000000
     CHANNELS 3 Yrotation Xrotation Zrotation
     JOINT Neck
     {
      OFFSET 0.000000 15.642200 0.000000
      CHANNELS 3 Yrotation Xrotation Zrotation
      JOINT Head
      {
       OFFSET 0.000000 9.697300 -0.006500
       CHANNELS 3 Yrotation Xrotation Zrotation
       End Site
       {
        OFFSET 0.000000 18.492200 -0.003400
       }
      }
     }
     JOINT RightCollar
     {
      OFFSET -3.166800 10.349300 0.000000
      CHANNELS 3 Yrotation Xrotation Zrotation
      JOINT RightShoulder
      {
       OFFSET -14.729700 0.000000 0.000000
       CHANNELS 3 Yrotation Xrotation Zrotation
       JOINT RightElbow
       {
        OFFSET 0.000000 -32.224300 0.000000
        CHANNELS 3 Yrotation Xrotation Zrotation
        JOINT RightWrist
        {
         OFFSET 0.000000 -26.084100 0.000000
         CHANNELS 3 Yrotation Xrotation Zrotation
         End Site
         {
          OFFSET 0.000000 -19.319400 0.000000
         }
        }
       }
      }
     }
     JOINT LeftCollar
     {
      OFFSET 3.166800 10.349300 0.000000
      CHANNELS 3 Yrotation Xrotation Zrotation
      JOINT LeftShoulder
      {
       OFFSET 14.729700 0.000000 0.000000
       CHANNELS 3 Yrotation Xrotation Zrotation
       JOINT LeftElbow
       {
        OFFSET 0.000000 -32.224300 0.000000
        CHANNELS 3 Yrotation Xrotation Zrotation
        JOINT LeftWrist
        {
         OFFSET 0.000000 -26.084100 0.000000
         CHANNELS 3 Yrotation Xrotation Zrotation
         End Site
         {
          OFFSET 0.000000 -19.319400 0.000000
         }
        }
       }
      }
     }
    }
   }
  }
 }
 JOINT RightHip
 {
  OFFSET -8.428900 -0.007500 -0.000800
  CHANNELS 3 Yrotation Xrotation Zrotation
  JOINT RightKnee
  {
   OFFSET 0.000000 -43.834600 0.000700
   CHANNELS 3 Yrotation Xrotation Zrotation
   JOINT RightAnkle
   {
    OFFSET 0.000000 -42.757000 0.001200
    CHANNELS 3 Yrotation Xrotation Zrotation
    JOINT RightToe
    {
     OFFSET 0.000000 -6.946900 15.649300
     CHANNELS 3 Yrotation Xrotation Zrotation
     End Site
     {
      OFFSET 0.000000 -1.580800 6.825800
     }
    }
   }
  }
 }
 JOINT LeftHip
 {
  OFFSET 8.428900 -0.007500 -0.000800
  CHANNELS 3 Yrotation Xrotation Zrotation
  JOINT LeftKnee
  {
   OFFSET 0.000000 -43.834600 0.000700
   CHANNELS 3 Yrotation Xrotation Zrotation
   JOINT LeftAnkle
   {
    OFFSET 0.000000 -42.757000 0.001200
    CHANNELS 3 Yrotation Xrotation Zrotation
    JOINT LeftToe
    {
     OFFSET 0.000000 -6.946900 15.649300
     CHANNELS 3 Yrotation Xrotation Zrotation
     End Site
     {
      OFFSET 0.000000 -1.580800 6.825800
     }
    }
   }
  }
 }
}
MOTION
Frames: 11
Frame Time: 0.008333
127.055915 126.609556 17.989797 -8.949059 -22.332538 -3.123531 -3.322744 18.358700 3.099591 -0.437286 2.142170 0.414159 -0.713172 3.541235 0.676463 -2.933607 15.917913 2.736045 2.369627 10.239322 -1.895071 5.442367 -16.639501 -4.738129 -8.793816 -0.020690 -8.195278 -7.827239 -5.555849 -7.396773 -37.027940 -19.282664 17.994573 -13.183144 1.268545 21.320683 0.798275 -1.274387 -0.833537 6.307756 0.814781 10.817544 17.626376 -14.693169 -17.117808 14.226412 -9.309320 -17.741568 -4.664582 -43.177409 -17.352575 -18.550849 70.594375 -21.424886 -0.053974 -0.909017 11.677965 0.002210 -0.008922 0.000981 -10.253654 -39.354825 3.223115 1.676611 65.714356 10.745342 -9.828047 -3.515033 -11.015872 0.003737 0.000511 0.001659
127.057739 126.610014 17.986586 -8.942938 -22.337291 -3.123921 -3.329530 18.355188 3.094654 -0.437978 2.137963 0.412848 -0.713660 3.548646 0.678182 -2.942837 15.907727 2.730118 2.394170 10.245223 -1.892124 5.458871 -16.624882 -4.734381 -8.825693 0.017183 -8.214775 -7.700392 -5.394797 -7.283925 -36.624905 -19.009922 17.648863 -13.166359 1.163010 21.102263 0.805111 -1.269518 -0.845655 6.290762 0.803877 10.769253 17.634435 -14.673918 -17.082002 14.237238 -9.302399 -17.773894 -4.679793 -43.175147 -17.344627 -18.540808 70.585482 -21.421988 -0.055488 -0.906686 11.668400 0.000205 -0.009412 0.000091 -10.280168 -39.346719 3.235170 1.668700 65.699879 10.730892 -9.822910 -3.503807 -11.024354 0.002885 -0.001472 0.001281
127.059938 126.611018 17.984720 -8.930678 -22.351273 -3.123597 -3.341916 18.362023 3.086762 -0.438433 2.141547 0.413562 -0.715741 3.536293 0.674235 -2.942776 15.919545 2.731868 2.413958 10.244377 -1.896238 5.470658 -16.615627 -4.729547 -8.860707 0.041683 -8.238245 -7.572679 -5.234038 -7.177603 -36.195070 -18.752338 17.301975 -13.146124 1.073935 20.902705 0.809778 -1.271001 -0.861851 6.277871 0.800128 10.761023 17.629722 -14.668425 -17.082294 14.238103 -9.305269 -17.789249 -4.694293 -43.162796 -17.345510 -18.528048 70.577477 -21.414472 -0.055692 -0.904921 11.664232 -0.000903 -0.010204 -0.000401 -10.286360 -39.328653 3.226119 1.683331 65.683668 10.740762 -9.810952 -3.492538 -11.021565 0.000748 -0.001027 0.000332
127.060407 126.613043 17.984734 -8.923197 -22.379653 -3.129269 -3.345411 18.373291 3.084864 -0.438964 2.141688 0.413602 -0.714252 3.526210 0.669515 -2.947650 15.929961 2.735665 2.425999 10.260378 -1.897190 5.518056 -16.599205 -4.742325 -8.887791 0.073251 -8.268624 -7.445996 -5.068547 -7.068437 -35.729199 -18.524220 16.937421 -13.096239 1.018074 20.733863 0.819745 -1.261205 -0.875660 6.259542 0.799159 10.751497 17.609099 -14.677425 -17.076025 14.240708 -9.313034 -17.778825 -4.709647 -43.135932 -17.336845 -18.467636 70.571723 -21.361332 -0.072130 -0.895489 11.658670 -0.000778 -0.014437 -0.000345 -10.273971 -39.293655 3.213121 1.720662 65.662102 10.786336 -9.824405 -3.482513 -11.023880 0.000913 -0.001747 0.000405
127.061608 126.614302 17.983109 -8.925479 -22.398791 -3.128220 -3.335393 18.363835 3.072619 -0.437409 2.142371 0.412752 -0.722346 3.550348 0.681850 -2.929405 15.910087 2.716546 2.421366 10.282056 -1.876057 5.560846 -16.572852 -4.760172 -8.927597 0.106135 -8.278319 -7.320222 -4.899375 -6.953207 -35.217877 -18.334036 16.542064 -13.007716 0.998152 20.598945 0.800337 -1.271565 -0.882916 6.212962 0.803686 10.716691 17.596732 -14.687847 -17.012346 14.265646 -9.312133 -17.757292 -4.707314 -43.115974 -17.335811 -18.429690 70.563700 -21.324491 -0.082585 -0.892027 11.654117 -0.001418 -0.014492 -0.000629 -10.238242 -39.268899 3.193402 1.755748 65.640713 10.836198 -9.868239 -3.478921 -11.025724 -0.003483 -0.001332 -0.001546
127.062694 126.615494 17.981472 -8.931643 -22.418331 -3.125529 -3.322851 18.366499 3.064112 -0.440382 2.151376 0.417149 -0.717702 3.545175 0.678097 -2.915426 15.911282 2.709302 2.439853 10.297210 -1.879526 5.568231 -16.550683 -4.754247 -8.957927 0.119055 -8.287836 -7.196453 -4.725583 -6.832388 -34.671354 -18.183150 16.113302 -12.883502 1.007115 20.492317 0.780079 -1.267034 -0.866520 6.196379 0.801667 10.700494 17.569472 -14.710750 -16.999603 14.255489 -9.310382 -17.749982 -4.699319 -43.094041 -17.335184 -18.396714 70.550777 -21.290708 -0.092709 -0.884626 11.650335 -0.000657 -0.013222 -0.000292 -10.190548 -39.242509 3.173771 1.874356 65.607283 10.952207 -9.938955 -3.468533 -11.021279 -0.006431 0.000454 -0.002855
127.062402 126.616658 17.979695 -8.939038 -22.438262 -3.128897 -3.307592 18.372819 3.064103 -0.442529 2.156855 0.419063 -0.696726 3.520560 0.659109 -2.906858 15.929873 2.716118 2.452770 10.312142 -1.877653 5.615772 -16.497838 -4.756066 -8.986569 0.134097 -8.278241 -7.069751 -4.556540 -6.715795 -34.119889 -18.056841 15.657539 -12.733360 1.032551 20.404322 0.754729 -1.273819 -0.867167 6.141325 0.777327 10.641876 17.555752 -14.716426 -16.908834 14.196113 -9.323096 -17.762521 -4.685992 -43.065559 -17.336158 -18.379379 70.535851 -21.255851 -0.097981 -0.879833 11.640951 0.000777 -0.008256 0.000345 -10.144821 -39.215378 3.153656 1.881646 65.592015 10.981581 -9.942751 -3.463757 -11.042345 -0.005466 0.003827 -0.002427
127.062137 126.617633 17.977949 -8.954005 -22.458005 -3.127940 -3.283421 18.373086 3.060247 -0.428498 2.138090 0.407317 -0.702884 3.537763 0.668100 -2.887835 15.930439 2.710792 2.465040 10.329448 -1.874276 5.611004 -16.467410 -4.734098 -9.017158 0.153050 -8.266313 -6.935040 -4.394360 -6.589832 -33.589864 -17.935509 15.190068 -12.577146 1.058155 20.326537 0.738820 -1.276537 -0.866285 6.108178 0.772362 10.632443 17.528985 -14.729402 -16.875801 14.168422 -9.328946 -17.776759 -4.666661 -43.041396 -17.338209 -18.373412 70.520689 -21.236884 -0.097674 -0.872815 11.637045 -0.000328 -0.006985 -0.000146 -10.098778 -39.190735 3.135269 1.899228 65.580167 11.016745 -9.960179 -3.461923 -11.043668 -0.004770 0.004728 -0.002118
127.061524 126.618443 17.976268 -8.972297 -22.477628 -3.126349 -3.254550 18.367418 3.054087 -0.427583 2.140899 0.408454 -0.701503 3.541948 0.669969 -2.865099 15.921475 2.701407 2.468097 10.350109 -1.864686 5.611072 -16.429675 -4.715413 -9.046182 0.170453 -8.264435 -6.797659 -4.231391 -6.447983 -33.100194 -17.801061 14.729210 -12.434839 1.066357 20.251796 0.713232 -1.274253 -0.864027 6.089617 0.766550 10.624165 17.508701 -14.733782 -16.843552 14.155710 -9.333694 -17.796283 -4.649281 -43.020358 -17.337412 -18.398795 70.509478 -21.244275 -0.092225 -0.876333 11.629398 0.003372 -0.006168 0.001497 -10.053574 -39.170035 3.121398 1.908665 65.571282 11.036075 -9.971771 -3.453799 -11.047814 -0.006883 0.002628 -0.003056
127.061064 126.618442 17.973190 -8.979658 -22.487137 -3.128315 -3.240490 18.361337 3.051562 -0.422617 2.132568 0.404595 -0.696579 3.538344 0.667499 -2.860514 15.934368 2.705903 2.481550 10.359001 -1.870625 5.601586 -16.396816 -4.693105 -9.056961 0.152571 -8.280588 -6.660367 -4.058606 -6.299533 -32.665488 -17.635072 14.284676 -12.317387 1.042492 20.175518 0.698779 -1.299932 -0.875584 6.084148 0.774566 10.617735 17.492974 -14.723574 -16.803352 14.145302 -9.343431 -17.836076 -4.631913 -43.008408 -17.345054 -18.421211 70.504329 -21.244268 -0.084923 -0.876360 11.620914 0.004269 -0.004272 0.001895 -10.047782 -39.159724 3.124337 1.894988 65.569318 11.019452 -9.958024 -3.447205 -11.054556 -0.006565 0.001929 -0.002914
127.060351 126.618193 17.969940 -8.987517 -22.494844 -3.130912 -3.229327 18.363848 3.054705 -0.415059 2.111707 0.394794 -0.690710 3.535406 0.665381 -2.856700 15.947807 2.709098 2.491320 10.369167 -1.875109 5.597651 -16.340293 -4.670265 -9.067414 0.148015 -8.274978 -6.529255 -3.918961 -6.172161 -32.290828 -17.430161 13.862969 -12.235802 0.986291 20.094502 0.677785 -1.310081 -0.867789 6.090055 0.783564 10.610314 17.474371 -14.736296 -16.809290 14.151364 -9.344306 -17.854373 -4.620359 -42.999089 -17.349673 -18.438824 70.497131 -21.240613 -0.075551 -0.873985 11.610738 0.005155 -0.002336 0.002288 -10.046198 -39.151720 3.130234 1.893220 65.568473 11.013055 -9.939195 -3.439632 -11.068437 -0.003873 0.002045 -0.001719
